<svg width="100" height="100" viewBox="0 0 280 280" fill="none" xmlns="http://www.w3.org/2000/svg"><rect width="280" height="280" fill="#F9CDAA"></rect><rect x="52" y="223.5" width="69.5" height="27" fill="#BA765A" stroke="#DAAA83"></rect><rect x="-18.5" y="223.5" width="69.5" height="27" fill="#A15238" stroke="#DAAA83"></rect><rect x="122.5" y="223.5" width="69.5" height="27" fill="#A9583F" stroke="#DAAA83"></rect><rect x="193" y="223.5" width="69.5" height="27" fill="#A8553A" stroke="#DAAA83"></rect><rect x="263.5" y="223.5" width="69.5" height="27" fill="#A15238" stroke="#DAAA83"></rect><rect x="18.7642" y="251.5" width="69.5" height="27" fill="#733C2A" stroke="#C7A07D"></rect><rect x="-51.7358" y="251.5" width="69.5" height="27" fill="#8B4935" stroke="#C7A07D"></rect><rect x="89.2642" y="251.5" width="69.5" height="27" fill="#9F5336" stroke="#C7A07D"></rect><rect x="159.764" y="251.5" width="69.5" height="27" fill="#744739" stroke="#C7A07D"></rect><rect x="230.264" y="251.5" width="69.5" height="27" fill="#8B4935" stroke="#C7A07D"></rect><rect x="18.7642" y="195.5" width="69.5" height="27" fill="#7A3A29" stroke="#EBBF94"></rect><rect x="-51.7358" y="195.5" width="69.5" height="27" fill="#5F3325" stroke="#EBBF94"></rect><rect x="89.2642" y="195.5" width="69.5" height="27" fill="#794A36" stroke="#EBBF94"></rect><rect x="159.764" y="195.5" width="69.5" height="27" fill="#623223" stroke="#EBBF94"></rect><rect x="230.264" y="195.5" width="69.5" height="27" fill="#5F3325" stroke="#EBBF94"></rect><rect x="18.7642" y="139.5" width="69.5" height="27" fill="#965037" stroke="#D69F78"></rect><rect x="-51.7358" y="139.5" width="69.5" height="27" fill="#8F4A35" stroke="#D69F78"></rect><rect x="89.2642" y="139.5" width="69.5" height="27" fill="#A8593B" stroke="#D69F78"></rect><rect x="159.764" y="139.5" width="69.5" height="27" fill="#5C2D1E" stroke="#D69F78"></rect><rect x="230.264" y="139.5" width="69.5" height="27" fill="#8F4A35" stroke="#D69F78"></rect><rect x="18.7642" y="27.5" width="69.5" height="27" fill="#7E3E28" stroke="#F1C0A3"></rect><rect x="-51.7358" y="27.5" width="69.5" height="27" fill="#984B30" stroke="#F1C0A3"></rect><rect x="89.2642" y="27.5" width="69.5" height="27" fill="#8D442E" stroke="#F1C0A3"></rect><rect x="159.764" y="27.5" width="69.5" height="27" fill="#92462C" stroke="#F1C0A3"></rect><rect x="230.264" y="27.5" width="69.5" height="27" fill="#984B30" stroke="#F1C0A3"></rect><rect x="18.7642" y="83.5" width="69.5" height="27" fill="#8F4931" stroke="#E9C5A0"></rect><rect x="-51.7358" y="83.5" width="69.5" height="27" fill="#934D33" stroke="#E9C5A0"></rect><rect x="89.2642" y="83.5" width="69.5" height="27" fill="#8C472D" stroke="#E9C5A0"></rect><rect x="159.764" y="83.5" width="69.5" height="27" fill="#9B5335" stroke="#E9C5A0"></rect><rect x="230.264" y="83.5" width="69.5" height="27" fill="#934D33" stroke="#E9C5A0"></rect><rect x="52" y="167.5" width="69.5" height="27" fill="#AB573B" stroke="#F9CDAA"></rect><rect x="-18.5" y="167.5" width="69.5" height="27" fill="#B46340" stroke="#F9CDAA"></rect><rect x="122.5" y="167.5" width="69.5" height="27" fill="#76452F" stroke="#F9CDAA"></rect><rect x="193" y="167.5" width="69.5" height="27" fill="#9C593D" stroke="#F9CDAA"></rect><rect x="263.5" y="167.5" width="69.5" height="27" fill="#B46340" stroke="#F9CDAA"></rect><rect x="52" y="111.5" width="69.5" height="27" fill="#AC583B" stroke="#D2A481"></rect><rect x="-18.5" y="111.5" width="69.5" height="27" fill="#B55D3F" stroke="#D2A481"></rect><rect x="122.5" y="111.5" width="69.5" height="27" fill="#945339" stroke="#D2A481"></rect><rect x="193" y="111.5" width="69.5" height="27" fill="#945537" stroke="#D2A481"></rect><rect x="263.5" y="111.5" width="69.5" height="27" fill="#B55D3F" stroke="#D2A481"></rect><rect x="52" y="55.5" width="69.5" height="27" fill="#A15336" stroke="#C1936E"></rect><rect x="-18.5" y="55.5" width="69.5" height="27" fill="#A25A3B" stroke="#C1936E"></rect><rect x="122.5" y="55.5" width="69.5" height="27" fill="#AE543B" stroke="#C1936E"></rect><rect x="193" y="55.5" width="69.5" height="27" fill="#A0593D" stroke="#C1936E"></rect><rect x="263.5" y="55.5" width="69.5" height="27" fill="#A25A3B" stroke="#C1936E"></rect><rect x="52" y="-0.5" width="69.5" height="27" fill="#A45A36" stroke="#CB9B7A"></rect><rect x="-18.5" y="-0.5" width="69.5" height="27" fill="#A9583B" stroke="#CB9B7A"></rect><rect x="122.5" y="-0.5" width="69.5" height="27" fill="#AA523A" stroke="#CB9B7A"></rect><rect x="193" y="-0.5" width="69.5" height="27" fill="#A45539" stroke="#CB9B7A"></rect><rect x="263.5" y="-0.5" width="69.5" height="27" fill="#A9583B" stroke="#CB9B7A"></rect></svg>