<svg width="100" height="100" viewBox="0 0 280 280" fill="none" xmlns="http://www.w3.org/2000/svg"><rect width="280" height="280" fill="#922C2B"></rect><path fill-rule="evenodd" clip-rule="evenodd" d="M138.179 87L181.914 128.25H166.316L192.373 153H171.091L202.765 185.25H178.019L210.358 229H151.679V248H122.679V229H64L96.3394 185.25H74.5933L106.268 153H84.9856L111.043 128.25H94.4448L138.179 87Z" fill="white"></path><path d="M138.679 52L142.945 65.1287H156.749L145.581 73.2426L149.847 86.3713L138.679 78.2574L127.511 86.3713L131.777 73.2426L120.609 65.1287H134.413L138.679 52Z" fill="#FFD83E"></path><path fill-rule="evenodd" clip-rule="evenodd" d="M138 78.7508L138.679 78.2574L149.847 86.3713L145.581 73.2426L156.749 65.1287H142.945L138.679 52L138 54.0904V78.7508Z" fill="#E7C130"></path><path fill-rule="evenodd" clip-rule="evenodd" d="M137 248H151.679V229H210.358L178.019 185.25H202.765L171.09 153H192.373L166.316 128.25H181.913L138.179 87L137 88.1122V248Z" fill="#ECECEC"></path></svg>